# xmcd
#
# Track frame offsets: 
#        150
#        25725
#        42600
#        58725
#        76350
#        99750
#        117638
#        140251
#        160426
#        176701
#        194626
#        212101
#        233326
#        261451
#        278251
#        298951
#
# Disc length: 4230 seconds
#
# Revision: 0
# Processed by: cddbd v1.5.2PL0 Copyright (c) Steve Scherf et al.
# Submitted via: ExactAudioCopy v0.99pb5
#
DISCID=ee108410
DTITLE=Loverboy  - Greatest Hits - The Real Thing (2009)  FLAC
DYEAR=1900
DGENRE=
TTITLE0=Turn Me Loose
TTITLE1=Working For The Weekend
TTITLE2=The Real Thing
TTITLE3=Lucky Ones
TTITLE4=When It's Over
TTITLE5=I'm Alive
TTITLE6=This Could Be The Night
TTITLE7=The Kid Is Hot Tonight
TTITLE8=Lovin' Every Minute Of It
TTITLE9=Hot Girls In Love
TTITLE10=Almost Paradise
TTITLE11=Notorious
TTITLE12=Take Me To The Top
TTITLE13=Jump
TTITLE14=Gangs In The Street
TTITLE15=Heaven In Your Eyes
EXTD=
EXTT0=
EXTT1=
EXTT2=
EXTT3=
EXTT4=
EXTT5=
EXTT6=
EXTT7=
EXTT8=
EXTT9=
EXTT10=
EXTT11=
EXTT12=
EXTT13=
EXTT14=
EXTT15=
PLAYORDER=
